<?xml version="1.0" encoding="utf-8"?>
<svg viewBox="73.051 45.971 364.941 38.611" width="364.941" height="38.611" xmlns="http://www.w3.org/2000/svg">
  <g fill="rgb(25.099182%, 32.939148%, 46.269226%)" fill-opacity="1">
    <g transform="translate(71.126234, 84.254338)">
      <g>
        <path d="M 27.988281 0 L 32.5 0 L 16.4375 -37.925781 L 16.0625 -37.925781 C 11.980469 -30.996094 7.144531 -21.21875 4.296875 -13.535156 C 3.007812 -10.097656 2.257812 -7.089844 1.988281 -4.726562 C 1.71875 -2.308594 2.308594 -0.699219 3.761719 -0.0546875 C 4.136719 0.269531 4.296875 0.269531 4.621094 0.324219 C 7.035156 0.429688 7.949219 -1.558594 8.972656 -4.242188 C 10.691406 -8.164062 12.785156 -13.699219 21.917969 -14.558594 Z M 21.753906 -14.933594 C 12.460938 -14.019531 10.3125 -8.378906 8.539062 -4.351562 C 7.679688 -1.878906 6.820312 0 4.671875 -0.160156 C 4.40625 -0.324219 4.242188 -0.324219 3.921875 -0.429688 C 2.632812 -0.859375 2.257812 -2.523438 2.363281 -4.726562 C 2.632812 -7.035156 3.382812 -9.992188 4.671875 -13.429688 C 6.929688 -19.660156 10.582031 -26.964844 13.859375 -33.304688 Z M 21.753906 -14.933594 "/>
      </g>
    </g>
  </g>
  <g fill="rgb(25.099182%, 32.939148%, 46.269226%)" fill-opacity="1">
    <g transform="translate(105.486341, 84.254338)">
      <g>
        <path d="M 24.601562 -7.949219 C 22.613281 -2.523438 19.875 -0.429688 15.253906 -0.429688 L 6.175781 -0.429688 L 6.175781 -37.925781 L 1.878906 -37.925781 L 1.878906 0 L 23.3125 0 Z M 24.601562 -7.949219 "/>
      </g>
    </g>
  </g>
  <g fill="rgb(25.099182%, 32.939148%, 46.269226%)" fill-opacity="1">
    <g transform="translate(131.954367, 84.254338)">
      <g>
        <path d="M 24.601562 -7.949219 C 22.613281 -2.523438 19.875 -0.429688 15.253906 -0.429688 L 6.175781 -0.429688 L 6.175781 -37.925781 L 1.878906 -37.925781 L 1.878906 0 L 23.3125 0 Z M 24.601562 -7.949219 "/>
      </g>
    </g>
  </g>
  <g fill="rgb(25.099182%, 32.939148%, 46.269226%)" fill-opacity="1">
    <g transform="translate(158.422393, 84.254338)">
      <g>
        <path d="M 1.878906 0 L 5.910156 0 L 5.910156 -37.925781 L 1.878906 -37.925781 Z M 1.878906 0 "/>
      </g>
    </g>
  </g>
  <g fill="rgb(25.099182%, 32.939148%, 46.269226%)" fill-opacity="1">
    <g transform="translate(166.207109, 84.254338)">
      <g>
        <path d="M 4.621094 -28.792969 C 4.621094 -22.667969 10.261719 -19.605469 16.007812 -17.027344 C 28.523438 -11.28125 29.492188 -5.746094 25.945312 -2.792969 C 19.175781 2.902344 7.144531 -1.773438 1.878906 -15.09375 L 1.878906 -7.628906 C 7.949219 0.160156 20.25 2.308594 26.375 -2.363281 C 28.308594 -3.921875 29.492188 -6.175781 29.492188 -9.078125 C 29.492188 -15.417969 23.902344 -18.480469 18.050781 -21.003906 C 4.941406 -27.128906 4.511719 -33.035156 8.703125 -35.777344 C 13.644531 -39.214844 23.421875 -38.40625 28.847656 -27.394531 L 28.847656 -33.035156 C 24.226562 -40.503906 4.621094 -40.769531 4.621094 -28.792969 Z M 4.621094 -28.792969 "/>
      </g>
    </g>
  </g>
  <g fill="rgb(25.099182%, 32.939148%, 46.269226%)" fill-opacity="1">
    <g transform="translate(197.560703, 84.254338)">
      <g>
        <path d="M 16.0625 -37.386719 C 5.910156 -34.648438 -0.160156 -24.226562 2.523438 -14.019531 C 5.316406 -3.707031 15.683594 2.363281 25.785156 -0.484375 C 35.992188 -3.167969 42.058594 -13.75 39.214844 -23.796875 C 36.582031 -34.003906 26.105469 -40.234375 16.0625 -37.386719 Z M 16.113281 -36.957031 C 25.355469 -39.535156 32.875 -30.996094 35.078125 -22.722656 C 37.171875 -14.558594 34.863281 -3.222656 25.675781 -0.859375 C 16.597656 1.558594 9.023438 -7.035156 6.875 -15.148438 C 4.671875 -23.367188 6.984375 -34.59375 16.113281 -36.957031 Z M 16.113281 -36.957031 "/>
      </g>
    </g>
  </g>
  <g fill="rgb(25.099182%, 32.939148%, 46.269226%)" fill-opacity="1">
    <g transform="translate(239.383394, 84.254338)">
      <g>
        <path d="M 1.878906 -37.925781 L 1.878906 0 L 5.910156 0 L 5.910156 -37.546875 C 11.710938 -37.546875 16.007812 -33.195312 19.230469 -27.074219 C 23.207031 -19.285156 25.191406 -8.539062 25.191406 0 L 29.222656 0 L 29.222656 -37.925781 L 25.191406 -37.925781 L 25.191406 -7.089844 C 24.386719 -14.019531 22.613281 -21.433594 19.445312 -27.289062 C 16.328125 -33.519531 11.765625 -37.925781 5.910156 -37.925781 Z M 1.878906 -37.925781 "/>
      </g>
    </g>
  </g>
  <g fill="rgb(25.099182%, 32.939148%, 46.269226%)" fill-opacity="1">
    <g transform="translate(285.447424, 84.254338)">
      <g>
        <path d="M 17.082031 -20.949219 C 21.753906 -21.539062 25.730469 -24.226562 25.730469 -29.492188 C 25.730469 -35.613281 19.230469 -37.976562 11.335938 -37.976562 L 1.878906 -37.976562 L 1.878906 0 L 6.125 0 L 6.125 -30.136719 C 6.605469 -27.878906 7.25 -26.160156 8.21875 -24.601562 C 9.832031 -22.078125 12.140625 -20.734375 14.773438 -20.734375 C 26.914062 -20.734375 14.773438 0 34.324219 0 L 34.324219 -0.429688 C 30.726562 -0.429688 28.738281 -4.511719 26.699219 -9.1875 C 24.546875 -14.234375 22.667969 -19.660156 17.082031 -20.949219 Z M 21.488281 -29.492188 C 21.488281 -23.851562 18.585938 -21.324219 15.148438 -21.109375 L 14.773438 -21.109375 C 12.300781 -21.109375 10.097656 -22.667969 8.59375 -24.871094 C 7.089844 -27.234375 6.125 -30.296875 6.125 -34.21875 L 6.125 -37.546875 L 11.335938 -37.546875 C 16.542969 -37.546875 21.488281 -35.613281 21.488281 -29.492188 Z M 21.488281 -29.492188 "/>
      </g>
    </g>
  </g>
  <g fill="rgb(25.099182%, 32.939148%, 46.269226%)" fill-opacity="1">
    <g transform="translate(321.632919, 84.254338)">
      <g>
        <path d="M 6.015625 -25.300781 C 7.574219 -18.960938 14.019531 -19.285156 17.136719 -15.738281 L 17.136719 -19.984375 C 9.777344 -19.984375 6.015625 -21.488281 6.015625 -28.847656 L 6.015625 -37.546875 L 10.421875 -37.546875 C 16.972656 -37.546875 19.769531 -37.28125 23.582031 -33.625 L 23.582031 -37.925781 L 1.878906 -37.925781 L 1.878906 0 L 23.257812 0 L 24.496094 -7.949219 C 22.5625 -2.523438 19.769531 -0.429688 15.09375 -0.429688 L 6.015625 -0.429688 Z M 6.015625 -25.300781 "/>
      </g>
    </g>
  </g>
  <g fill="rgb(25.099182%, 32.939148%, 46.269226%)" fill-opacity="1">
    <g transform="translate(347.993578, 84.254338)">
      <g>
        <path d="M 28.46875 -34.917969 C 28.847656 -35.882812 30.886719 -37.871094 32.285156 -37.976562 L 26.214844 -37.976562 C 27.234375 -37.871094 28.953125 -36.851562 27.824219 -34.648438 L 18.960938 -17.457031 L 14.988281 -24.066406 L 6.714844 -37.976562 L 1.878906 -37.976562 L 14.988281 -15.953125 L 14.988281 0 L 19.230469 0 L 19.230469 -17.082031 Z M 28.46875 -34.917969 "/>
      </g>
    </g>
  </g>
  <g fill="rgb(25.099182%, 32.939148%, 46.269226%)" fill-opacity="1">
    <g transform="translate(382.138921, 84.254338)">
      <g>
        <path d="M 6.015625 -25.300781 C 7.574219 -18.960938 14.019531 -19.285156 17.136719 -15.738281 L 17.136719 -19.984375 C 9.777344 -19.984375 6.015625 -21.488281 6.015625 -28.847656 L 6.015625 -37.546875 L 10.421875 -37.546875 C 16.972656 -37.546875 19.769531 -37.28125 23.582031 -33.625 L 23.582031 -37.925781 L 1.878906 -37.925781 L 1.878906 0 L 23.257812 0 L 24.496094 -7.949219 C 22.5625 -2.523438 19.769531 -0.429688 15.09375 -0.429688 L 6.015625 -0.429688 Z M 6.015625 -25.300781 "/>
      </g>
    </g>
  </g>
  <g fill="rgb(25.099182%, 32.939148%, 46.269226%)" fill-opacity="1">
    <g transform="translate(408.499581, 84.254338)">
      <g>
        <path d="M 4.621094 -28.792969 C 4.621094 -22.667969 10.261719 -19.605469 16.007812 -17.027344 C 28.523438 -11.28125 29.492188 -5.746094 25.945312 -2.792969 C 19.175781 2.902344 7.144531 -1.773438 1.878906 -15.09375 L 1.878906 -7.628906 C 7.949219 0.160156 20.25 2.308594 26.375 -2.363281 C 28.308594 -3.921875 29.492188 -6.175781 29.492188 -9.078125 C 29.492188 -15.417969 23.902344 -18.480469 18.050781 -21.003906 C 4.941406 -27.128906 4.511719 -33.035156 8.703125 -35.777344 C 13.644531 -39.214844 23.421875 -38.40625 28.847656 -27.394531 L 28.847656 -33.035156 C 24.226562 -40.503906 4.621094 -40.769531 4.621094 -28.792969 Z M 4.621094 -28.792969 "/>
      </g>
    </g>
  </g>
</svg>